<svg width="171" height="55" viewBox="0 0 171 55" fill="none" xmlns="http://www.w3.org/2000/svg">
<path d="M47.6685 39.0495C47.6685 43.4602 46.2139 47.1549 43.3045 50.1335C40.3982 53.1112 36.7832 54.6005 32.4595 54.6015H19.7152V33.4967H27.9412V46.9127H32.4595C34.637 46.9127 36.4112 46.1935 37.7822 44.7553C39.1552 43.322 39.8407 41.4201 39.8387 39.0495C39.8387 36.6788 39.1532 34.7748 37.7822 33.3376C36.4122 31.9014 34.638 31.1833 32.4595 31.1833H15.1969C12.78 31.2188 10.39 30.6757 8.22894 29.5998C8.0898 29.5307 7.95067 29.4556 7.8146 29.3805C6.53438 28.6679 5.36745 27.7708 4.35182 26.7184C1.59438 23.9175 0.0348699 20.165 0 16.2472L0 15.0422C0.121011 10.8868 1.57166 7.38739 4.35195 4.54406C7.25823 1.56652 10.8732 0.0772203 15.1969 0.0761719H27.9412V21.1838H19.7152V7.76508H15.1969C13.0195 7.76508 11.2453 8.48319 9.87429 9.9194C8.50125 11.3557 7.81473 13.2586 7.81473 15.6282C7.81473 18.0019 8.50125 19.9058 9.87429 21.34C11.2442 22.7763 13.0185 23.4954 15.1969 23.4974H32.4595C36.7842 23.4974 40.3992 24.9847 43.3045 27.9593C46.2139 30.937 47.6685 34.6337 47.6685 39.0495Z" fill="#4A4A4A"/>
<path d="M77.2387 0H69.8862L62.0955 23.4553H68.6385L69.6502 20.0709H77.5083L78.5202 23.4553H85.0295L77.2387 0ZM71.2016 14.911L73.5625 6.93619L75.957 14.911H71.2016Z" fill="#E97522"/>
<path d="M96.3612 1.95732e-08H86.7491V15.5715H92.9548V5.79683H96.3613C97.1079 5.77046 97.8516 5.90167 98.5434 6.18182C99.2352 6.46196 99.8594 6.88466 100.375 7.42204C101.409 8.50566 101.926 9.94087 101.926 11.7277C101.926 13.5149 101.409 14.9502 100.375 16.0333C99.8594 16.5707 99.2353 16.9935 98.5435 17.2736C97.8516 17.5538 97.1078 17.6849 96.3612 17.6585H86.7491V23.4553H96.3612C99.6209 23.4553 102.347 22.3328 104.54 20.0878C106.732 17.8427 107.828 15.056 107.828 11.7277C107.828 8.39947 106.732 5.61277 104.54 3.36756C102.347 1.12235 99.6213 -0.000171152 96.3612 1.95732e-08Z" fill="#E97522"/>
<path d="M120.239 1.95732e-08H110.627V5.79683H120.239C120.986 5.77046 121.729 5.90167 122.421 6.18181C123.113 6.46196 123.737 6.88466 124.252 7.42204C125.286 8.50575 125.803 9.94096 125.804 11.7277C125.804 13.5149 125.287 14.9502 124.252 16.0333C123.737 16.5707 123.113 16.9935 122.421 17.2736C121.729 17.5538 120.986 17.6849 120.239 17.6585H116.833V7.88382H110.627V23.4553H120.239C123.499 23.4553 126.225 22.3328 128.417 20.0878C130.61 17.8427 131.706 15.056 131.706 11.7277C131.706 8.39947 130.61 5.61277 128.417 3.36756C126.225 1.12235 123.499 -0.000171152 120.239 1.95732e-08Z" fill="#E97522"/>
<path d="M71.2689 31.0419C72.3739 31.013 73.4736 31.2025 74.5042 31.5994C75.5349 31.9963 76.4758 32.5927 77.2725 33.3539C78.8911 34.8956 79.7005 36.8615 79.7007 39.2516C79.7007 41.6422 78.8913 43.6079 77.2725 45.1487C76.4759 45.9101 75.5349 46.5066 74.5043 46.9035C73.4736 47.3004 72.3739 47.4898 71.2689 47.4607H68.1322V54.4976H62.0955V31.0419H71.2689ZM71.2689 41.7645C71.5864 41.7712 71.9019 41.7121 72.1952 41.5909C72.4884 41.4698 72.753 41.2892 72.9721 41.0607C73.2034 40.8205 73.3839 40.5366 73.5028 40.2259C73.6216 39.9151 73.6764 39.5838 73.6639 39.2516C73.6775 38.9217 73.6231 38.5926 73.5042 38.2844C73.3852 37.9761 73.2041 37.6953 72.9721 37.459C72.7505 37.2349 72.485 37.0584 72.1921 36.9401C71.8992 36.8219 71.585 36.7646 71.2689 36.7716H68.1322V41.7645H71.2689Z" fill="#B1B1B1"/>
<path d="M94.7429 31.041H100.746V54.4967H94.7429V45.4832H88.0983V54.4967H82.0615V31.041H88.0983V39.7194H94.7429V31.041Z" fill="#B1B1B1"/>
<path d="M124.743 51.4649C122.387 53.7319 119.237 54.9996 115.957 54.9996C112.678 54.9996 109.527 53.7319 107.171 51.4649C106.003 50.3387 105.081 48.9853 104.463 47.4891C103.845 45.993 103.544 44.3862 103.579 42.7693C103.544 41.1525 103.845 39.5457 104.463 38.0496C105.081 36.5534 106.003 35.2 107.171 34.0738C109.527 31.8067 112.678 30.5391 115.957 30.5391C119.237 30.5391 122.387 31.8067 124.743 34.0738C125.911 35.2001 126.833 36.5535 127.451 38.0497C128.069 39.5458 128.37 41.1525 128.335 42.7693C128.37 44.3862 128.069 45.9929 127.451 47.489C126.833 48.9852 125.911 50.3386 124.743 51.4649ZM111.404 47.3433C112.475 48.478 113.911 49.2059 115.465 49.4016C117.019 49.5973 118.592 49.2485 119.915 48.4153C121.237 47.5822 122.226 46.3168 122.71 44.8373C123.195 43.3578 123.145 41.7567 122.568 40.31C121.992 38.8632 120.926 37.6614 119.554 36.9116C118.182 36.1618 116.59 35.911 115.051 36.2023C113.513 36.4936 112.125 37.3089 111.127 38.5076C110.129 39.7064 109.582 41.2135 109.582 42.7693C109.554 43.6151 109.701 44.4576 110.014 45.2445C110.328 46.0314 110.801 46.7458 111.404 47.3433Z" fill="#B1B1B1"/>
<path d="M146.143 31.041V36.8377H140.308V54.4967H134.271V36.8377H128.436V31.041H146.143Z" fill="#B1B1B1"/>
<path d="M167.408 51.4649C165.053 53.7319 161.902 54.9996 158.622 54.9996C155.343 54.9996 152.192 53.7319 149.836 51.4649C148.668 50.3387 147.746 48.9853 147.128 47.4891C146.51 45.993 146.209 44.3862 146.244 42.7693C146.209 41.1525 146.51 39.5458 147.128 38.0496C147.746 36.5534 148.668 35.2 149.836 34.0738C152.192 31.8067 155.343 30.5391 158.622 30.5391C161.902 30.5391 165.053 31.8067 167.408 34.0738C168.576 35.2001 169.498 36.5535 170.116 38.0497C170.734 39.5458 171.035 41.1525 171 42.7693C171.035 44.3862 170.734 45.9929 170.116 47.489C169.498 48.9852 168.576 50.3387 167.408 51.4649ZM154.069 47.3433C155.14 48.478 156.577 49.2059 158.13 49.4016C159.684 49.5973 161.257 49.2485 162.58 48.4153C163.902 47.5822 164.891 46.3168 165.376 44.8373C165.86 43.3578 165.81 41.7567 165.234 40.31C164.658 38.8632 163.592 37.6614 162.219 36.9116C160.847 36.1618 159.255 35.911 157.717 36.2023C156.178 36.4936 154.79 37.3089 153.792 38.5076C152.794 39.7064 152.248 41.2135 152.248 42.7693C152.219 43.6151 152.366 44.4576 152.679 45.2445C152.993 46.0314 153.466 46.7458 154.069 47.3433Z" fill="#B1B1B1"/>
</svg>
