<svg width="108" height="35" viewBox="0 0 108 35" fill="none" xmlns="http://www.w3.org/2000/svg">
<path d="M30.1064 24.8491C30.1064 27.6559 29.1877 30.007 27.3502 31.9025C25.5146 33.7974 23.2315 34.7452 20.5007 34.7458H12.4517V21.3155H17.6471V29.8529H20.5007C21.876 29.8529 22.9966 29.3953 23.8624 28.48C24.7296 27.5679 25.1626 26.3576 25.1613 24.8491C25.1613 23.3404 24.7283 22.1288 23.8624 21.2142C22.9972 20.3003 21.8766 19.8433 20.5007 19.8433H9.59807C8.07159 19.8659 6.56211 19.5203 5.19722 18.8356C5.10935 18.7917 5.02148 18.7438 4.93554 18.6961C4.12697 18.2426 3.38997 17.6717 2.74852 17.002C1.00697 15.2196 0.0220231 12.8317 0 10.3385L0 9.5717C0.0764283 6.92732 0.992629 4.70045 2.7486 2.89106C4.58414 0.996253 6.8673 0.0485187 9.59807 0.0478516H17.6471V13.48H12.4517V4.94079H9.59807C8.22283 4.94079 7.10226 5.39777 6.23639 6.31172C5.36921 7.22573 4.93562 8.4367 4.93562 9.94462C4.93562 11.4551 5.36921 12.6667 6.23639 13.5794C7.10163 14.4934 8.22219 14.951 9.59807 14.9523H20.5007C23.2321 14.9523 25.5153 15.8987 27.3502 17.7917C29.1877 19.6865 30.1064 22.039 30.1064 24.8491Z" fill="#4A4A4A"/>
<path d="M48.7823 0H44.1386L39.2181 14.9261H43.3506L43.9896 12.7724H48.9526L49.5917 14.9261H53.7028L48.7823 0ZM44.9694 9.4888L46.4605 4.41394L47.9728 9.4888H44.9694Z" fill="#E97522"/>
<path d="M60.8597 1.24557e-08H54.7889V9.90914H58.7083V3.68889H60.8597C61.3313 3.67211 61.801 3.75561 62.2379 3.93388C62.6749 4.11216 63.0691 4.38115 63.3945 4.72312C64.0475 5.41269 64.3741 6.32601 64.3744 7.46306C64.3744 8.60042 64.0478 9.51373 63.3946 10.203C63.0691 10.545 62.6749 10.814 62.238 10.9923C61.801 11.1706 61.3313 11.2541 60.8597 11.2372H54.7889V14.9261H60.8597C62.9185 14.9261 64.6403 14.2118 66.0251 12.7831C67.4099 11.3545 68.1022 9.58111 68.1019 7.46306C68.1019 5.34512 67.4096 3.57176 66.0251 2.14299C64.6405 0.714222 62.9187 -0.000108915 60.8597 1.24557e-08Z" fill="#E97522"/>
<path d="M75.9404 1.24557e-08H69.8696V3.68889H75.9404C76.412 3.67211 76.8817 3.75561 77.3186 3.93388C77.7556 4.11215 78.1498 4.38115 78.4752 4.72312C79.1282 5.41275 79.4548 6.32606 79.455 7.46306C79.455 8.60042 79.1284 9.51373 78.4752 10.203C78.1498 10.545 77.7556 10.814 77.3187 10.9923C76.8817 11.1706 76.412 11.254 75.9404 11.2372H73.789V5.01698H69.8696V14.9261H75.9404C77.9992 14.9261 79.7209 14.2118 81.1057 12.7831C82.4906 11.3545 83.1828 9.58111 83.1826 7.46306C83.1826 5.34512 82.4903 3.57176 81.1057 2.14299C79.7212 0.714222 77.9994 -0.000108915 75.9404 1.24557e-08Z" fill="#E97522"/>
<path d="M45.012 19.7538C45.7099 19.7354 46.4045 19.8559 47.0554 20.1085C47.7063 20.3611 48.3006 20.7406 48.8038 21.225C49.8261 22.2061 50.3373 23.4571 50.3374 24.9781C50.3374 26.4994 49.8262 27.7503 48.8038 28.7308C48.3006 29.2153 47.7064 29.5949 47.0554 29.8475C46.4045 30.1001 45.7099 30.2206 45.012 30.2021H43.0309V34.6801H39.2183V19.7538H45.012ZM45.012 26.5772C45.2126 26.5815 45.4118 26.5439 45.597 26.4668C45.7822 26.3897 45.9493 26.2747 46.0877 26.1294C46.2338 25.9765 46.3478 25.7959 46.4229 25.5981C46.4979 25.4003 46.5325 25.1895 46.5246 24.9781C46.5332 24.7682 46.4989 24.5588 46.4237 24.3626C46.3486 24.1664 46.2343 23.9877 46.0877 23.8373C45.9477 23.6948 45.7801 23.5824 45.5951 23.5072C45.4101 23.432 45.2116 23.3955 45.012 23.4H43.0309V26.5772H45.012Z" fill="#B1B1B1"/>
<path d="M59.8377 19.7539H63.6291V34.6803H59.8377V28.9444H55.6411V34.6803H51.8284V19.7539H55.6411V25.2765H59.8377V19.7539Z" fill="#B1B1B1"/>
<path d="M78.785 32.7505C77.2973 34.1932 75.3073 34.9999 73.236 34.9999C71.1648 34.9999 69.1748 34.1932 67.6871 32.7505C66.9492 32.0339 66.3669 31.1726 65.9766 30.2205C65.5862 29.2684 65.3962 28.2459 65.4185 27.217C65.3963 26.1881 65.5863 25.1656 65.9766 24.2135C66.367 23.2614 66.9493 22.4001 67.6871 21.6835C69.1748 20.2408 71.1648 19.4341 73.236 19.4341C75.3073 19.4341 77.2973 20.2408 78.785 21.6835C79.5228 22.4002 80.105 23.2615 80.4953 24.2136C80.8857 25.1656 81.0757 26.1881 81.0535 27.217C81.0757 28.2459 80.8857 29.2683 80.4954 30.2204C80.1051 31.1725 79.5228 32.0338 78.785 32.7505ZM70.3603 30.1277C71.037 30.8498 71.9441 31.313 72.9253 31.4375C73.9065 31.562 74.9003 31.3401 75.7356 30.8099C76.5709 30.2797 77.1953 29.4745 77.5013 28.533C77.8072 27.5914 77.7755 26.5726 77.4116 25.6519C77.0478 24.7313 76.3746 23.9665 75.5079 23.4893C74.6413 23.0122 73.6356 22.8526 72.664 23.038C71.6925 23.2234 70.8159 23.7422 70.1854 24.505C69.5549 25.2678 69.21 26.2269 69.2099 27.217C69.192 27.7552 69.2848 28.2913 69.4827 28.7921C69.6806 29.2928 69.9793 29.7475 70.3603 30.1277Z" fill="#B1B1B1"/>
<path d="M92.3007 19.7539V23.4427H88.6154V34.6803H84.8027V23.4427H81.1174V19.7539H92.3007Z" fill="#B1B1B1"/>
<path d="M105.731 32.7505C104.244 34.1932 102.254 34.9999 100.182 34.9999C98.1112 34.9999 96.1212 34.1932 94.6335 32.7505C93.8956 32.0339 93.3133 31.1726 92.923 30.2205C92.5326 29.2684 92.3426 28.2459 92.3649 27.217C92.3427 26.1881 92.5327 25.1656 92.923 24.2135C93.3134 23.2614 93.8956 22.4001 94.6335 21.6835C96.1212 20.2408 98.1112 19.4341 100.182 19.4341C102.254 19.4341 104.244 20.2408 105.731 21.6835C106.469 22.4002 107.051 23.2615 107.442 24.2136C107.832 25.1656 108.022 26.1881 108 27.217C108.022 28.2459 107.832 29.2683 107.442 30.2204C107.052 31.1725 106.469 32.0338 105.731 32.7505ZM97.3067 30.1277C97.9834 30.8498 98.8905 31.313 99.8717 31.4375C100.853 31.562 101.847 31.3401 102.682 30.8099C103.517 30.2797 104.142 29.4745 104.448 28.533C104.754 27.5914 104.722 26.5726 104.358 25.6519C103.994 24.7313 103.321 23.9665 102.454 23.4893C101.588 23.0122 100.582 22.8526 99.6104 23.038C98.6389 23.2234 97.7623 23.7422 97.1318 24.505C96.5013 25.2678 96.1564 26.2269 96.1564 27.217C96.1384 27.7552 96.2312 28.2913 96.4291 28.7921C96.627 29.2928 96.9258 29.7475 97.3067 30.1277Z" fill="#B1B1B1"/>
</svg>
